<svg version="1" xmlns="http://www.w3.org/2000/svg" width="1701.333" height="1701.333" viewBox="0 0 1276.000000 1276.000000"><path d="M211 189v161h-28v576h28v322.5h855V926h28V350h-28l.2-161 .3-161H211v161zm784-76.5V126H282V99h713v13.5zm0 56V182H282v-27h713v13.5zm0 56V238H282v-27h713v13.5zm-409 115v7.5h-31v414h57v8c0 8 0 8.1-4.3 13.4-11.2 13.6-17.7 42.8-17.7 79.1V878h-12.7l-.6-10.3c-2.6-42.1-30.7-79.6-66.5-88.8-7.1-1.8-11.6-1.9-80.2-1.9-69.6 0-73 .1-80.6 2-38.4 9.8-67.9 45.9-72.6 88.8l-1.1 10.2H264v-14.3c0-40.9-6.8-69.2-20.2-84.5-2.7-3.1-2.9-3.8-2.6-10.5l.3-7.2 28.8-.3 28.7-.2v-8.4c0-19.3 3.4-50.1 8.1-73.1 18.8-91.5 68.7-185 147.7-276.8L470 385l-.2-18.8-.3-18.7-16.7-.3-16.8-.2v-15h150v7.5zm272.4 9.1c11.1 10 21.5 17 40.6 27.3 23.9 12.8 37.5 20.7 43.9 25.4 14.7 10.9 26.9 29 33.7 49.9l2.8 8.8h32.6v16H863v-16h33v-10.3c0-20-3-28.1-16.6-45.7-11.2-14.3-18.9-24.8-23.8-32.3-2.1-3.1-4.1-5.7-4.5-5.7-1 0-23.2 22.8-30.9 31.8-23.7 27.8-41.6 67.1-46.9 102.9-2.4 16.3-2.4 46.4 0 59.2 3.9 21 16.4 48.9 31.8 71.3 31.8 46.2 38.7 58 43 73.5 1.9 6.7 2.2 11.2 2.6 32.5.7 35.8-1.8 52.1-11.1 72.8-2.4 5.5-4 10-3.5 10 1.8 0 16.2-8.2 27.4-15.6 18.3-12.1 31.3-24.3 40.9-38.3 13.3-19.6 16.7-41 12.4-77.8l-1-9.3-16.7-.2-16.6-.3v-15h150v15l-17.1.3-17 .2-1.3 3.8c-4 11.2-18.4 36.9-28.4 50.7-20.6 28.5-47.9 53.3-83.6 75.9-19.7 12.5-56.3 30.6-61.7 30.6-1 0-1.4-1.6-1.4-5.8 0-6.9-3.3-25.9-6.1-35.3-3.7-12.9-8.2-20.1-19.2-31.2-5.6-5.6-14.7-13.6-20.2-17.7-39.7-29.8-61-52.2-73.8-77.5-11.1-22.1-13.5-51.8-7.1-90 7.9-48 30.1-94.4 69.1-144.7 11.9-15.3 20-24.6 42.3-48.3 10.8-11.6 25-27 31.6-34.3 6.5-7.2 12-13.2 12.2-13.2.2 0 3.6 3 7.6 6.6zM995 1051.5v13.5H282v-27h713v13.5zm0 56v13.5H282v-27h713v13.5zm0 56v13.5H282v-27h713v13.5z"/><path d="M455.3 431.7c-43.7 56.5-67.1 92-88.4 134.3-21.6 43.1-34.3 82-42.9 131.5-1.7 10.1-4 39.4-4 51.7V761h150V588c0-95.2-.4-173-.8-173-.5 0-6.7 7.5-13.9 16.7z"/></svg>