<svg id="logo" xmlns="http://www.w3.org/2000/svg" width="330" height="150"><defs><style>.cls-1,.cls-2{fill:#fff}.cls-1{fill-rule:evenodd}</style></defs><path id="С" class="cls-1" d="M81.725 53.794v1.144h10.736v-1.144h-2.332q-.176-.616-.462-1.342a6.18 6.18 0 00-.77-1.386 5.46 5.46 0 00-1.562-1.606 20.4 20.4 0 00-1.935-1.122q-1.034-.528-2.178-1.188a10.529 10.529 0 01-2.289-1.85q-1.633 1.85-3.608 3.918a39.458 39.458 0 00-3.7 4.491 25.541 25.541 0 00-2.882 5.358 17.477 17.477 0 00-1.166 6.508 7.266 7.266 0 00.946 3.793 12.782 12.782 0 002.266 2.818A29.187 29.187 0 0075.5 74.43a11.351 11.351 0 012.221 2.07 2.836 2.836 0 01.462.814 9.339 9.339 0 01.352 1.122 11.763 11.763 0 01.242 1.276 9.7 9.7 0 01.088 1.276 19.064 19.064 0 002.692-1.188 27.566 27.566 0 002.78-1.694 25.2 25.2 0 002.625-2.09 15.907 15.907 0 002.185-2.42 20.183 20.183 0 001.453-2.268 16.9 16.9 0 00.883-1.914h2.427V68.27H83.133v1.144h2.376a13.128 13.128 0 01.176 1.452q.043.7.044 1.1a9.366 9.366 0 01-.154 1.65 5.356 5.356 0 01-.748 1.826 8.733 8.733 0 01-1.768 1.98 16.306 16.306 0 01-3.27 2.068 8.74 8.74 0 001.1-3.388 11.753 11.753 0 00.066-1.606q-.023-.814-.022-1.826a5.435 5.435 0 00-.418-2.134 12.308 12.308 0 00-1.056-1.96q-.638-.97-1.364-1.963a20.47 20.47 0 01-1.364-2.14A13.267 13.267 0 0175.675 62a9.778 9.778 0 01-.418-2.956 14.24 14.24 0 01.594-4.3 16.062 16.062 0 011.449-3.326 14.245 14.245 0 011.848-2.508q.99-1.056 1.782-1.848.835 1.277 1.43 2.024t.99 1.276a3.668 3.668 0 01.572 1.078 4.818 4.818 0 01.176 1.43v.924h-2.373z"/><path id="Д" class="cls-1" d="M50.434 44.525v1.144h2.376v2.72a63.25 63.25 0 00-4.71 5.857 47.411 47.411 0 00-3.872 6.471 37.623 37.623 0 00-2.64 7 28.644 28.644 0 00-.968 7.435h-4.09v1.144a3.707 3.707 0 01.946 1.474 9.873 9.873 0 01.484 1.93 16.418 16.418 0 01.176 2.046q.022 1.012.022 1.8h.924v-.22a6.681 6.681 0 01.528-2.618 8.047 8.047 0 011.408-2.244 6.733 6.733 0 012.09-1.584 5.858 5.858 0 012.618-.594h8.58a5.329 5.329 0 012.64.638 6.361 6.361 0 011.936 1.65 7.389 7.389 0 011.21 2.31 8.637 8.637 0 01.418 2.662h.924q0-.792.022-1.8a16.119 16.119 0 01.176-2.046 9.817 9.817 0 01.484-1.936 3.7 3.7 0 01.946-1.474v-1.141H58.97v-29.48h2.2v-1.144H50.434zm2.376 30.624H42.162a28.916 28.916 0 01.814-7 32.733 32.733 0 012.244-6.259 41.405 41.405 0 013.388-5.8q1.957-2.811 4.2-5.622v24.681z"/><g id="Низ"><path id="Прямоугольник_3" data-name="Прямоугольник 3" class="cls-2" d="M96 87h2v25h-2z"/><path id="Прямоугольник_10" data-name="Прямоугольник 10" class="cls-2" d="M40 103h51v2H40z"/><path id="Прямоугольник_8" data-name="Прямоугольник 8" class="cls-2" d="M33 110h65v2H33z"/><path id="Прямоугольник_1" data-name="Прямоугольник 1" class="cls-2" d="M33 87h2v25h-2z"/><path id="Прямоугольник_12" data-name="Прямоугольник 12" class="cls-2" d="M40 95h51v2H40z"/><path id="Прямоугольник_11" data-name="Прямоугольник 11" class="cls-2" d="M40 99h51v2H40z"/></g><g id="Верх"><path id="Прямоугольник_4" data-name="Прямоугольник 4" class="cls-2" d="M40 36h51v2H40z"/><path id="Прямоугольник_4-2" data-name="Прямоугольник 4" class="cls-2" d="M40 28h51v2H40z"/><path id="Прямоугольник_4-3" data-name="Прямоугольник 4" class="cls-2" d="M40 32h51v2H40z"/><path id="Прямоугольник_3-2" data-name="Прямоугольник 3" class="cls-2" d="M96 21h2v25h-2z"/><path id="Прямоугольник_1-2" data-name="Прямоугольник 1" class="cls-2" d="M33 21h2v25h-2z"/><path id="Прямоугольник_2" data-name="Прямоугольник 2" class="cls-2" d="M33 21h65v2H33z"/></g><path id="ДАВНЯЯ" class="cls-1" d="M150.339 54.809V31.758h2.7a.894.894 0 00.666-.314 1.019 1.019 0 00.3-.721.888.888 0 00-.277-.648.93.93 0 00-.685-.277h-23.091a.949.949 0 00-.925.925 1.086 1.086 0 00.259.74.844.844 0 00.666.3h4.514a45.582 45.582 0 01-1.776 11.433 38.611 38.611 0 01-5.513 11.618h-2.109a.9.9 0 00-.684.3.994.994 0 00-.278.7V62.1a.962.962 0 00.3.7.923.923 0 00.666.3 1.011 1.011 0 001-1v-5.33H152.3v5.33a1.015 1.015 0 00.962.962.991.991 0 00.7-.278.9.9 0 00.3-.684v-6.29a1.011 1.011 0 00-1-1h-2.923zm-2 0h-4.292V31.758h4.292v23.051zm-6.253-23.051v23.051h-12.504a39.581 39.581 0 005-11.1 42.617 42.617 0 001.85-11.951h5.661zm40.885 23.051l-9.879-24.383a.741.741 0 00-.888-.629h-3.034a.89.89 0 00-.925.592l-.037.037-1.665 4.551v.074l-4.514 11.211h-.037v.074l-3.441 8.473h-3.182a.9.9 0 00-.684.3.994.994 0 00-.278.7 1.015 1.015 0 00.962.962h10.251a1.015 1.015 0 00.962-.962.963.963 0 00-.3-.7.92.92 0 00-.666-.3H160.7l2.849-7.215h7.807l2.923 7.215h-3.145a1.086 1.086 0 00-1 1 .921.921 0 00.3.666.959.959 0 00.7.3h13.653a1.015 1.015 0 00.962-.962.963.963 0 00-.3-.7.92.92 0 00-.666-.3h-1.813zm-6.586 0l-7.881-19.462 1.332-3.589h1.7l9.324 23.051h-4.477zm-12.025-9.176l3.071-7.659 3.108 7.659h-6.179zm42.513-3.33q4.365-1.776 4.366-5.957 0-4.4-4.588-5.772-2.664-.777-9.546-.777h-10.173a.949.949 0 00-.962.962.992.992 0 00.278.7.9.9 0 00.684.3h2.7v23.05h-2.7a.949.949 0 00-.962.962.957.957 0 00.3.7.918.918 0 00.666.3h9.953q7.622 0 10.582-1a6.829 6.829 0 005.069-7.067 5.712 5.712 0 00-2-4.7 9.208 9.208 0 00-3.663-1.7zm-9.028-.666V31.8a6.015 6.015 0 013.293 1.258 4.3 4.3 0 011.221 3.293 6.22 6.22 0 01-.462 2.479 3.846 3.846 0 01-1.221 1.628 8.182 8.182 0 01-1.314.814 5.04 5.04 0 01-1.073.37h-.444zm.888 2.035a6.5 6.5 0 013.515 1.517 4.529 4.529 0 011.332 3.515 5.058 5.058 0 01-1.646 4.07 8.773 8.773 0 01-4.089 1.887V43.672h.888zm3.737-2.22a5.377 5.377 0 001-1.406 7.87 7.87 0 00.851-3.7 6.246 6.246 0 00-1.554-4.44 11.994 11.994 0 014.625 1.036 3.583 3.583 0 011.887 3.4 3.945 3.945 0 01-1.924 3.478 11.96 11.96 0 01-4.884 1.628zm.3 13.135A8.7 8.7 0 00204.322 53a7.612 7.612 0 001.221-4.292 6.449 6.449 0 00-1.961-4.921v-.041a14.39 14.39 0 014.958 1.221 3.947 3.947 0 012.072 3.737 4.823 4.823 0 01-2.368 4.588 13.7 13.7 0 01-5.476 1.3zm-6.919.222h-4.255V31.758h4.255v23.051zm46.1 0V31.758h2.7a1.015 1.015 0 00.962-.962.994.994 0 00-.278-.7.9.9 0 00-.684-.3h-13.467a.9.9 0 00-.685.3.994.994 0 00-.277.7 1.015 1.015 0 00.962.962h2.516v9.953h-8.695v-9.953h2.627a.887.887 0 00.647-.277.93.93 0 00.278-.684.994.994 0 00-.278-.7.862.862 0 00-.647-.3H214.09a.92.92 0 00-.666.3.959.959 0 00-.3.7 1.015 1.015 0 00.962.962h2.7v23.05h-2.7a.92.92 0 00-.666.3.959.959 0 00-.3.7 1.015 1.015 0 00.962.962h13.542a.871.871 0 00.666-.278.968.968 0 00.259-.684.994.994 0 00-.278-.7.862.862 0 00-.647-.3h-2.627v-11.1h8.703v11.1h-2.516a.9.9 0 00-.685.3.994.994 0 00-.277.7.947.947 0 00.962.962h13.468a.949.949 0 00.962-.962.994.994 0 00-.278-.7.9.9 0 00-.684-.3h-2.7zm-1.924 0h-4.292V31.758h4.292v23.051zm-16.983 0h-4.255V31.758h4.255v23.051zm48.544 0V31.758h2.959a.9.9 0 00.685-.3 1.039 1.039 0 00.277-.74.862.862 0 00-.3-.648.952.952 0 00-.667-.277h-11.28q-6.771 0-9.4.962a5.94 5.94 0 00-4.181 6.068 6.841 6.841 0 001.738 4.7 8.355 8.355 0 003.849 2.4 10.876 10.876 0 00-4.07 4.921q-1.407 2.961-2.443 5.18a4.589 4.589 0 01-.369.777h-2.072a.888.888 0 00-.648.278.93.93 0 00-.277.684.978.978 0 00.3.684.86.86 0 00.629.315h9.472a.865.865 0 00.888-.629h.037q.924-2.553 2.423-5.809a16.518 16.518 0 012.387-4.144 6.275 6.275 0 011.887-1.332v9.953h-2.7a.956.956 0 00-.648 1.665.98.98 0 00.685.3h13.542a.915.915 0 00.721-.315 1.014 1.014 0 00.278-.684.9.9 0 00-.3-.684 1.039 1.039 0 00-.739-.278h-2.664zm-2 0h-4.181V31.758h4.219zm-13.134-17.723a7.486 7.486 0 002.591 5.661q-1.3-.185-2.184-.333-5.18-1.295-5.179-5.587a3.913 3.913 0 012-3.774 12.2 12.2 0 014.848-1.11 5.978 5.978 0 00-1.295 1.7 7.442 7.442 0 00-.778 3.441zm3.7 7.733q-1.555 1.443-4.847 9.4a5.28 5.28 0 01-.223.592h-4.514c.05-.123.154-.357.315-.7l.518-1.11c.185-.395.376-.789.574-1.184q.111-.222.444-.962c.222-.493.406-.888.555-1.184a8.974 8.974 0 012.9-3.774 8.8 8.8 0 014.311-1.073h-.037zm3.256-2a5.863 5.863 0 01-3.552-2.017 5.5 5.5 0 01-1.48-3.718 4.967 4.967 0 011.35-3.589 5.96 5.96 0 013.682-1.7v11.026zm38.22 11.988V31.758h2.96a.9.9 0 00.685-.3 1.039 1.039 0 00.277-.74.863.863 0 00-.3-.648.952.952 0 00-.666-.277h-11.28q-6.771 0-9.4.962a5.94 5.94 0 00-4.181 6.068 6.837 6.837 0 001.739 4.7 8.347 8.347 0 003.848 2.4 10.882 10.882 0 00-4.07 4.921q-1.407 2.961-2.442 5.18a4.645 4.645 0 01-.37.777h-2.07a.887.887 0 00-.647.278.931.931 0 00-.278.684.982.982 0 00.3.684.863.863 0 00.629.315h9.472a.865.865 0 00.888-.629h.037q.924-2.553 2.424-5.809a16.557 16.557 0 012.386-4.144 6.287 6.287 0 011.887-1.332v9.953h-2.7a.956.956 0 00-.647 1.665.977.977 0 00.684.3h13.542a.917.917 0 00.722-.315 1.013 1.013 0 00.277-.684.9.9 0 00-.3-.684 1.041 1.041 0 00-.74-.278h-2.664zm-2 0h-4.181V31.758h4.218zM286.5 37.086a7.485 7.485 0 002.59 5.661q-1.3-.185-2.183-.333-5.181-1.295-5.18-5.587a3.913 3.913 0 012-3.774 12.194 12.194 0 014.847-1.11 5.978 5.978 0 00-1.3 1.7 7.442 7.442 0 00-.777 3.441zm3.7 7.733q-1.554 1.443-4.847 9.4a5.56 5.56 0 01-.222.592h-4.514q.073-.185.315-.7t.516-1.111c.185-.394.375-.789.573-1.184q.111-.222.444-.962t.555-1.184a8.974 8.974 0 012.905-3.774 8.8 8.8 0 014.31-1.073h-.035zm3.256-2A5.863 5.863 0 01289.9 40.8a5.5 5.5 0 01-1.48-3.718 4.968 4.968 0 011.351-3.589 5.96 5.96 0 013.681-1.7v11.028z"/><path id="СУДЖ" class="cls-1" d="M149.282 96.625a.73.73 0 00-.77.525 5.039 5.039 0 01-.35.525 13.875 13.875 0 01-2.625 3.5 6.267 6.267 0 01-3.537 1.014 6.019 6.019 0 01-2.73-.63q-3.921-2.238-3.92-9.239 0-5.215 1.645-8.085a5.793 5.793 0 014.655-3.045 7.533 7.533 0 013.605 1.855 16.7 16.7 0 012.94 3.885v2.31a.822.822 0 00.262.63.913.913 0 00.648.245.88.88 0 00.647-.263.84.84 0 00.263-.612v-8.785a.91.91 0 10-1.82 0v3.115a12 12 0 00-2.695-2.73 8.694 8.694 0 00-5.04-1.54 14.094 14.094 0 00-5.74 1.155 12.685 12.685 0 00-4.2 2.975 12.882 12.882 0 00-3.43 8.89q0 6.23 4.1 9.8a12.515 12.515 0 004.165 2.415 13.691 13.691 0 004.62.77 9.514 9.514 0 005.74-1.89 15.611 15.611 0 004.41-5.46.932.932 0 00.035-.665.863.863 0 00-.42-.525.71.71 0 00-.455-.14zm-15.75-4.3q0 8.05 4.9 10.849a5.284 5.284 0 00.63.28 11.926 11.926 0 01-3.8-.875 10.961 10.961 0 01-3.22-2.065 9.157 9.157 0 01-2.292-3.447 12.764 12.764 0 01-.84-4.742 11.643 11.643 0 012-6.458 10.021 10.021 0 015.74-4.182 9.055 9.055 0 00-1.89 2.975 20.345 20.345 0 00-1.225 7.665zm37.135-12.775a.9.9 0 00-.91.91.814.814 0 00.28.612.9.9 0 00.63.263h4.655l-5.25 10.4-6.16-10.36h2.905a.941.941 0 00.665-.263.854.854 0 00.28-.648.88.88 0 00-.263-.647.922.922 0 00-.682-.263h-12.95a.9.9 0 00-.91.91.851.851 0 00.28.648.9.9 0 00.63.263h1.26l10.745 17.875a.031.031 0 00-.035.035v.035l-.07.1a11.4 11.4 0 01-2.1 2.764 2.707 2.707 0 00.07-.7 3.882 3.882 0 00-1.085-2.782 3.576 3.576 0 00-2.695-1.137 3.4 3.4 0 00-2.625 1.155 4.024 4.024 0 00-.035 5.459 3.627 3.627 0 002.66 1.12 7.314 7.314 0 005.075-1.855 12.255 12.255 0 002.38-3.22h.035a.268.268 0 00.035-.105.814.814 0 01.14-.209l.14-.28 3.115-5.565v-.03l6.51-12.7h2.413a.941.941 0 00.665-.263.817.817 0 00.28-.612.88.88 0 00-.263-.647.922.922 0 00-.682-.263h-9.135zm-3.78 17.85l-9.59-16.03h4.48l7.28 12.25zm-5.548 5.495a1.943 1.943 0 01-2.747-.017 1.912 1.912 0 01-.56-1.383 2.124 2.124 0 01.56-1.487 1.827 1.827 0 012.73 0 2.129 2.129 0 01.56 1.487 1.929 1.929 0 01-.543 1.394zm41.913.315V81.4h2.555a.848.848 0 00.63-.3.969.969 0 00.28-.683.841.841 0 00-.263-.612.88.88 0 00-.647-.263h-21.84a.9.9 0 00-.875.875 1.021 1.021 0 00.245.7.8.8 0 00.63.28h4.27a43.118 43.118 0 01-1.68 10.815 36.531 36.531 0 01-5.215 10.989h-2a.855.855 0 00-.648.28.942.942 0 00-.262.665v5.95a.907.907 0 00.28.665.867.867 0 00.63.28.956.956 0 00.945-.945v-5.04h24.815v5.04a.96.96 0 00.91.91.941.941 0 00.665-.262.855.855 0 00.28-.648v-5.95a.956.956 0 00-.945-.945h-2.765zm-1.89 0H197.3V81.4h4.06v21.8zm-5.915-21.8v21.8h-11.83a37.432 37.432 0 004.725-10.5 40.361 40.361 0 001.75-11.3h5.355zm50.189 21.769a2.756 2.756 0 00-.14-.35q-1.365-3.393-2.415-5.809a10.883 10.883 0 00-3.29-4.41 8.243 8.243 0 00-3.22-1.54 9.7 9.7 0 001.96-2.975 23.327 23.327 0 00.945-2.94 1.126 1.126 0 00.07-.28 4.4 4.4 0 00.98 1.295 4 4 0 005.583-.1 3.85 3.85 0 00.017-5.583 3.86 3.86 0 00-2.8-1.172h-.035a4.815 4.815 0 00-4.095 1.75 9.756 9.756 0 00-1.47 3.605l-.122.368c-.059.175-.1.309-.123.4a19.648 19.648 0 01-.7 1.925h-.035a5.22 5.22 0 01-1.855 2.73h-.035a3.945 3.945 0 01-2.275.525.656.656 0 01-.21.035h-.665V81.4h2.345a.882.882 0 00.665-.3.965.965 0 00.284-.68.814.814 0 00-.28-.612.939.939 0 00-.665-.263h-12.53a.939.939 0 00-.665.263.814.814 0 00-.28.612.965.965 0 00.28.683.882.882 0 00.665.3h2.485v9.24h-.7a4.5 4.5 0 01-2.485-.56 6.122 6.122 0 01-1.96-2.765 16.9 16.9 0 01-.875-2.66q-.244-.874-.385-1.3t-.455-1.19a3.987 3.987 0 00-.686-1.168 8.722 8.722 0 00-.928-.858 3.376 3.376 0 00-1.347-.647 7.481 7.481 0 00-1.768-.193h-.035a4.009 4.009 0 00-2.835 1.155 3.971 3.971 0 000 5.6 3.91 3.91 0 002.87 1.19 3.854 3.854 0 002.73-1.085 3.66 3.66 0 00.98-1.33.584.584 0 00.035.175.593.593 0 01.035.14l.035.105a16.515 16.515 0 00.945 2.835 9.766 9.766 0 001.925 2.975 8.243 8.243 0 00-3.22 1.54 10.016 10.016 0 00-3.29 4.41q-2.03 4.55-2.555 6.159h-1.82a.924.924 0 00-.7.3.934.934 0 00-.28.647.882.882 0 00.3.665.959.959 0 00.682.28h8.925a.967.967 0 00.945-.63v-.035q.875-2.94 2.118-6.212a14.2 14.2 0 012.082-4.148 7 7 0 011.715-1.435v10.6h-2.485a.94.94 0 00-.665.263.851.851 0 00-.28.647.956.956 0 00.945.945h12.53a.926.926 0 00.648-.28.871.871 0 00.017-1.3.911.911 0 00-.665-.28h-2.345V92.6a7.637 7.637 0 011.68 1.435q1.541 1.575 4.2 10.36l.035.035a.881.881 0 00.875.63h9a.926.926 0 00.648-.28.893.893 0 000-1.33.934.934 0 00-.648-.28h-1.855zm-6.44 0q-2.8-8.714-4.48-10.394l-.175-.175a8.056 8.056 0 016.9 5.145q.49 1.155 2.2 5.424H239.2zm2.5-21.437a2.229 2.229 0 011.592-.612 2.127 2.127 0 011.54.612 2.114 2.114 0 01-.017 3.028 2.114 2.114 0 01-1.523.63 2.194 2.194 0 01-1.592-.63 2.092 2.092 0 01.004-3.038zm-11.88 21.458H225.9V81.4h3.92v21.8zm-8.855-10.429q-1.61 1.61-4.48 10.394h-4.445q.7-1.854 2.275-5.424a7.906 7.906 0 016.825-5.145zm-8.54-7.385a2.14 2.14 0 01-1.54-.647 2.033 2.033 0 01-.017-2.993 2.24 2.24 0 013.115 0 2.074 2.074 0 010 3.01 2.154 2.154 0 01-1.558.63z"/><path id="А" class="cls-1" d="M275.529 103.343l-9.345-23.065a.7.7 0 00-.84-.595h-2.87a.841.841 0 00-.875.56l-.035.035-1.575 4.3v.07l-4.27 10.605h-.035v.07l-3.255 8.015h-3.01a.852.852 0 00-.648.28.939.939 0 00-.262.665.96.96 0 00.91.91h9.695a.96.96 0 00.91-.91.911.911 0 00-.28-.665.87.87 0 00-.63-.28h-4.655l2.695-6.825h7.385l2.765 6.825h-2.975a1.024 1.024 0 00-.945.945.87.87 0 00.28.63.906.906 0 00.665.28h12.915a.96.96 0 00.91-.91.911.911 0 00-.28-.665.87.87 0 00-.63-.28h-1.715zm-6.23 0l-7.455-18.41 1.26-3.4h1.61l8.82 21.805H269.3zm-11.375-8.68l2.905-7.245 2.94 7.245h-5.845z"/></svg>